<?xml version="1.0" encoding="UTF-8"?>
<svg version="1.1" viewBox="0 0 2048 711" width="1280" height="1280" xmlns="http://www.w3.org/2000/svg">
<path transform="translate(0)" d="m0 0h2048v711h-2048z" fill="#0E2436"/>
<path transform="translate(995,252)" d="m0 0h95l3 1 13 1 13 3 9 4 14 7 11 8 10 9 8 9 5 7 4 8 4 9 5 14 2 13 1 1v30l-4 16-6 16-4 7h-2l-1 4-8 10-12 12-5 2v2l-9 6-9 4h-2v2l-14 4h-3l3 5 34 34 8 7 8 8 4 5 3 7 1 8-7 13-6 1v2l-11 1-9-4v-2l-4-2-8-7-6-7-8-7-12-13-13-13-8-7-10-9-5-5-8-9-39-1v69l-3 9-4 4-8 4h-10l-8-5-1-3-2-1v-3h-2l-2-6v-266h2l1-5 8-8z" fill="#FEFEFD"/>
<path transform="translate(787,252)" d="m0 0h159v2l5 1 6 5 1 5h2v10l-3 9-6 5-5 3-131 1-1 87h101l8 7 3 6v12l-4 7-6 5h-2v2h-100v93h129l9 4 5 5 3 5v10l-3 9-5 4-7 3h-160l-7-7-3-4-2-13v-260l1-3h2l1-4 7-7z" fill="#FDFDFC"/>
<path transform="translate(1570,252)" d="m0 0h157l10 6 3 3 2 8v6l-5 11-4 4-5 2h-132v88h58l44 1 7 7 1 5h2v9l-4 10-3 4-4 2-11 2h-42l-48-1v93h127l12 4 4 4 2 4v14l-4 9-6 4-5 1h-156l-6-4-4-4v-2h-2l-3-9v-264l4-8 8-7z" fill="#FCFCFB"/>
<path transform="translate(386,252)" d="m0 0h37l16 4 12 4 15 8 11 8 12 12 9 13 6 13 4 10 3 8 2 13 1 1 1 10v180l-2 6-4 6-9 5h-11l-8-4-4-4-2-3-2-7-1-181-2-10-3-9-5-10-1-4h-2v-3h-2l-6-8-4-3v-2l-4-1v-2l-6-2-13-5-5-1h-28l-16 5-8 5h-2l-2 4-7 6-1 2h-2l-2 6-4 6-3 8-3 12-1 11-1 176-2 8-4 5-10 5h-9l-9-4-4-4-4-10v-173l1-4 1-17 4-17h2l2-9 6-14h2l1-4 6-8 9-10 9-8 7-4 6-4 11-5 16-5z" fill="#FDFDFC"/>
<path transform="translate(1306,252)" d="m0 0h29l18 2 13 4 16 8 11 7 10 9 9 10 6 9 6 13 5 14 2 7 3 19 1 3v180l-4 9-8 5h-3v2h-11l-7-3v-2l-4-1-3-6-2-7-1-180-2-10-3-9-5-10-1-4h-2v-3h-2l-7-9-4-3v-2h-3v-2l-6-2-7-2v-2l-11-2h-28l-16 5-8 5h-2l-1 3-8 7-1 2h-2l-2 6h-2l-2 6-4 11-2 9-1 9-1 178-3 9-5 5-4 3-4 1h-9l-12-6-4-8-1-4v-175l1-2 2-22 3-12h2v-6h2l1-5 5-12 8-11 11-12 9-8 10-6 8-4 21-7z" fill="#FDFDFC"/>
<path transform="translate(545,252)" d="m0 0h194l9 7 3 4v3h2v13h-2l-1 4-8 7-3 2h-77l-1 247-5 8-6 5-2 1h-13l-8-5-5-9-1-3v-244h-72l-7-2-5-3-6-9-1-9 4-8 6-6 5-1z" fill="#FCFCFB"/>
<path transform="translate(1021,292)" d="m0 0h65l15 2 12 4 13 8 8 6 8 11 6 12 4 13v23l-4 15-5 9-9 11-6 5-7 5-16 7-15 3h-70v-133z" fill="#102537"/>
<path transform="translate(1489,252)" d="m0 0h9l11 6 4 7 1 4v268l-2 5h-2l-1 4-3 4h-3v2l-13 1-8-3-3-3v-2h-2l-3-5-1-4-1-21v-237l1-10 4-8 7-6z" fill="#FAFAF9"/>
<path transform="translate(230,252)" d="m0 0h9l10 4 5 6 3 6v268l-1 5h-2l-1 4-5 5-7 3h-10l-7-3-6-9-2-6v-267l1-4h2l1-4 7-6h3z" fill="#FDFDFC"/>
<path transform="translate(1660,89)" d="m0 0h2l7 8 10 6 15 6 17 5 17 3h30l36-5 45-8 29-4 12-1h17l10 2 14 7 8 8 8 13 2 8-4-1-11-5-15-4-8-1h-12l-24 2-32 6-36 8-31 6-10 1h-25l-16-3-15-6-13-9-12-11-10-13-5-12-1-5z" fill="#F58E37"/>
<path transform="translate(1669,125)" d="m0 0 4 2 9 8 11 7 11 5 13 4 12 2h26l26-3 29-6 42-10 18-3 10-1h23l16 4 14 7 10 10 5 9v5l-5-1-14-6-8-2h-23l-24 4-35 9-41 10-22 4-12 1h-14l-21-3-15-5-13-7-10-8-7-8-9-13-6-13z" fill="#F48E38"/>
<path transform="translate(1659,88)" d="m0 0 3 1-2 2 4 12 7 11 12 13 14 10 12 6 15 4 7 1h25l21-3 77-16 19-3 16-1h12l17 3 13 5 6 4v3l4 1 6 9 3 8-1 4-6-9-7-8-8-6-15-6-10-2h-23l-22 3-28 6-38 9-26 4-11 1h-26l-16-3-16-6-11-6-13-11-4-3 8 17 13 17 8 7 14 8 13 5 16 3 9 1h14l19-2 36-8 50-13 21-4 8-1h23l13 4 15 7-1 4-6-1-11-5-6-1-8 16-15 33-14 34-9 26-2 9-3 3-3 1 1-12 9-29 8-21 11-25 18-36v-2l-16 1-10 1-6 4-2 3-6-1h-13l-26 6-14 4-20 4-5 2v1h-8l1 2-3 1h-28l-6 1-1-3-2 3-11-1v-3l-1 2h-8l-6-2-11-1-3-2 3-1-1-1-8-1-4-1-2 1-11-8-4-4 1-4-4-2-5-9-6-9-5-12-2-10-5-10-4-17 1-5z" fill="#07172C"/>
<path transform="translate(1925,162)" d="m0 0 9 2 12 6 1 3-4 13-11 23-9 19-7 15-10 25-8 26-4 19-1 12 2 13v6l-4-2-11-14-4-9-2-9v-17l4-21 10-29 14-33 12-26 9-20z" fill="#A4A7AA"/>
<path transform="translate(1911,159)" d="m0 0h7l1 3-20 40-12 28-12 36-5 21-1 7v18l4 15 2 6-5-2-14-14-5-10-3-10-1-14 4-23 6-23 7-20 11-25 12-25 3-5 2-1z" fill="#A4A6A9"/>
<path transform="translate(662,292)" d="m0 0h23l49 1-3 2-9 3-13 2-27 1-7 2-3 10v34l-3-3-2-18 1 19v67l-1 32v14l-1 14v30l-1 15-1 4 2 3-1 7-3 6h-1v-239z" fill="#152336"/>
<path transform="translate(1867,210)" d="m0 0 1 3-6 19v13l11-2 9-2-2 9-7 23-4 21v18l4 15 2 6-5-2-14-14-5-10-3-10-1-14 4-23 6-23 7-20z" fill="#6E6565"/>
<path transform="translate(815,293)" d="m0 0h127v1l-8 1v2l-16 4-24 3-38 1h-18l-7 2-3 4-1 3-1 11-3-2-1-11-1 39-2 10-1 12h2v3h-4l-1 3z" fill="#07172C"/>
<path transform="translate(1883,87)" d="m0 0h7l14 5 10 3 8 5 8 7 4 7 3 11 1 5-3-3-8-12-9-8-11-5-10-2h-17l-28 3-53 9-25 4-9 1h-24v-1l19-2 25-8 25-6 16-2h19l3-2-6-1-18 2-4 1h-8l-2-2 28-5h8 2l20-2h8z" fill="#07172C"/>
<path transform="translate(1884,254)" d="m0 0 5 3 6 3 7 6 2 5-2 9-6 23-3 18 1 13 1 10-4-2-11-14-4-9-2-9v-17l4-21z" fill="#6E6565"/>
<path transform="translate(814,419)" d="m0 0h31l67 1-4 2-17 5-12 2-42 2-10 3-4 4-1 5-1 35-2 12-2 9-1 13h-2z" fill="#0E1D30"/>
<path transform="translate(1596,292)" d="m0 0h53l70 1-4 3-10 2-16 2-29 2-32-1h-13l-8 4-3 5-1 8-1 34-3 20-2 4-1-15z" fill="#07172C"/>
<path transform="translate(258,286)" d="m0 0 2 4 2 20 1 25v17l-1 7 1 5 1 36v66l-1 27-1 12h-1v17l-1 13-3 2z" fill="#07172C"/>
<path transform="translate(1021,292)" d="m0 0h65l15 2 5 2 1 2-22 1v-3l-2 2h-6l-4-1h-36l-1 4-7 3-2 12h-2l-1 7 1 8 1 1v21l2 1-2 18v7l-2 9v16l2-1-1 4h-2l1 9v8h31v1h-34z" fill="#101E32"/>
<path transform="translate(781,549)" d="m0 0 4 2h164l-4 5-6 2v-2l-13 2-31 2h-31l-32-1-36-3h-9l-5-3z" fill="#101E31"/>
<path transform="translate(1597,420)" d="m0 0h20l69 1-4 2-9 3-17 2-25 1h-9l-11 2-5 3-2 4-1 7-1 30-2 13-1 2-1 17h-1l-1-31v-46z" fill="#07182C"/>
<path transform="translate(340,368)" d="m0 0h1l3 12 1 7h1l1 28v49l-1 54-3 15-2-3-1 4h2l-1 6h-2v-46z" fill="#07172C"/>
<path transform="translate(1731,550)" d="m0 0 2 1-9 5-12 1-30 2h-49l-21-1-35-2h-3l-4-1-1-3 157-1z" fill="#08192D"/>
<path transform="translate(1260,368)" d="m0 0h1l1 17 1 6v11h2v101l-3-3v20l-2 14h-1v-54z" fill="#07182C"/>
<path transform="translate(516,364)" d="m0 0 2 1 2 35v44l1 20v23l-3 49-3 1 1-22z" fill="#07182C"/>
<path transform="translate(771,306)" d="m0 0h1v197h-1l-1-18-1-49v-104l-2 8-1 1v6h-1l-1 11h-1v-19l3-16 1-4 1-8z" fill="#07172C"/>
<path transform="translate(547,292)" d="m0 0h74v59l-3 2-1-29v-17l-4-2-8-5-15-1-4-1 2-2h-10l-17-1v1h-6l-8-3z" fill="#07172C"/>
<path transform="translate(1897,205)" d="m0 0 4 1 1 3-3 5-1 8-10 24-9 26-2 9-3 3-3 1 1-12 9-29 8-21z" fill="#081A2E"/>
<path transform="translate(1662,89)" d="m0 0 14 5 6 5-1 2 5 3v-4l5 2 6 5 9 2 11 3 2 2 5 1v-1h11l-2 3h-11l-19-4-17-6-14-7-10-9z" fill="#07172C"/>
<path transform="translate(1857,226)" d="m0 0 2 4-1 7-7 27-3 19v17l-2-3-1-5v-13l3-17 1-8 4-14 2-13z" fill="#08192E"/>
<path transform="translate(1897,205)" d="m0 0 4 1 1 3-3 5-1 8-2 5-4-1-4 10-3 3-1-4 11-26z" fill="#0D2335"/>
<path transform="translate(1089,498)" d="m0 0 7 6 14 14 8 7 9 10 2 4-4-1-5-4v-2h-2l-5-6-8-7-11-13-5-6z" fill="#07182D"/>
<path transform="translate(1626,296)" d="m0 0h59l4 2-10 1h-44l-10-1z" fill="#0E2436"/>
<path transform="translate(891,422)" d="m0 0 4 1-9 2-19 2h-41v-2l41-1 9-1z" fill="#0E2436"/>
<path transform="translate(1063,472)" d="m0 0 8 6 6 7 8 7 13 12 14 14h-3l-19-19-5-3-7-6-7-8-8-8z" fill="#494E58"/>
<path transform="translate(388,248)" d="m0 0h22l6 2v1l-21 1-15 2h-6l2-2z" fill="#07182D"/>
<path transform="translate(899,297)" d="m0 0h17v1l-15 2-15 1h-19l-1-2z" fill="#0E2436"/>
<path transform="translate(831,298)" d="m0 0 22 1 12 1-1 2h-11l-4-1h-20z" fill="#0E2436"/>
<path transform="translate(517,402)" d="m0 0h1v6h2v15l-2 3h-2v-14z" fill="#091B2F"/>
<path transform="translate(1122,529)" d="m0 0 6 5 7 8 6 4 1 2 8 3v1h-6l-6-4-8-7-2-2-4-6z" fill="#353D4A"/>
<path transform="translate(1626,296)" d="m0 0h17l10 1-3 2h-15l-10-1z" fill="#0E2436"/>
<path transform="translate(1553,498)" d="m0 0h1v28h-1l-2-12 1-13z" fill="#07172C"/>
<path transform="translate(1515,474)" d="m0 0 2 3 1 9-2 11h-1z" fill="#07172C"/>
<path transform="translate(1515,521)" d="m0 0 2 2 1 7-2 9-2 2z" fill="#07172C"/>
<path transform="translate(1846,279)" d="m0 0h1l1 11v10l-2-3-1-5v-12z" fill="#08182D"/>
<path transform="translate(1671,296)" d="m0 0h14l4 2-17 1z" fill="#0D2335"/>
<path transform="translate(1849,265)" d="m0 0h1l-1 10-1 8-2-4 1-9z" fill="#0A1D30"/>
</svg>
